# xmcd
#
# Track frame offsets: 
#        150
#        13353
#        25913
#        39657
#        52102
#        65173
#        77301
#        89813
#        102277
#        115443
#        127850
#        141690
#        156827
#        171042
#        184152
#        197301
#        217614
#        233654
#
# Disc length: 3283 seconds
#
# Revision: 1
# Processed by: cddbd v1.5.2PL0 Copyright (c) Steve Scherf et al.
# Submitted via: ExactAudioCopy v1.0b3
#
DISCID=fa0cd112
DTITLE=Various Artists - Roots Of The Blues - Disc 2
DYEAR=2010
DGENRE=Blues
TTITLE0=Big Joe Williams - Brother James
TTITLE1=B.B. King - Highway Bound 
TTITLE2=Leadbelly - New York City
TTITLE3=B.B. King - I Gotta Find My Baby 
TTITLE4=Lightnin' Hopkins - L.A. Blues
TTITLE5=B.B. King - Miss Martha King 
TTITLE6=Blind Boy Fuller, Sonny Terry - Train Whistle Blues
TTITLE7=B.B. King - Mistreated Woman 
TTITLE8=Muddy Waters - Burr Clover Farm Blues
TTITLE9=B.B. King - My Baby Is Gone 
TTITLE10=John Lee Hooker - Alberta
TTITLE11=B.B. King - My Own Fault Darlin' 
TTITLE12=Billie Holiday - Guess Who
TTITLE13=B.B. King - Neighborhood Affair 
TTITLE14=Memphis Minnie - Friscotown
TTITLE15=B.B. King - Please Hurry Home
TTITLE16=Muddy Waters - Country Blues No. 2 
TTITLE17=B.B. King - Please Love Me 
EXTD=Roots Of The Blues\n4 CD Set - Disc 2 - Play 4-012B\nPlay 24-7 --
EXTD=Play 4-012 -- Compiled 2010\n72 Blues Standards That Inspired Ge
EXTD=nerations\nDigitally Remastered
EXTT0=
EXTT1=
EXTT2=
EXTT3=
EXTT4=
EXTT5=
EXTT6=
EXTT7=
EXTT8=
EXTT9=
EXTT10=
EXTT11=
EXTT12=
EXTT13=
EXTT14=
EXTT15=
EXTT16=
EXTT17=
PLAYORDER=
